<svg width="201" height="41" viewBox="0 0 201 41" fill="none" xmlns="http://www.w3.org/2000/svg">
<g filter="url(#filter0_d)">
<path d="M18.5137 11.4688C17.9355 11.4688 17.4277 11.625 16.9902 11.9375C16.5527 12.2344 16.1777 12.6562 15.8652 13.2031C15.5527 13.7344 15.2949 14.3672 15.0918 15.1016C14.8887 15.8203 14.7246 16.6094 14.5996 17.4688C14.4746 18.3281 14.3887 19.2266 14.3418 20.1641C14.2949 21.1016 14.2715 22.0469 14.2715 23C14.2715 24.25 14.3184 25.4844 14.4121 26.7031C14.5215 27.9062 14.5762 29.0234 14.5762 30.0547C14.5762 30.7266 14.3262 31.25 13.8262 31.625C13.3262 32.0156 12.6152 32.2109 11.6934 32.2109C11.5215 32.2109 11.3262 32.1953 11.1074 32.1641C10.8887 32.1328 10.6777 32.0703 10.4746 31.9766C10.2871 31.8828 10.1152 31.75 9.95898 31.5781C9.81836 31.4219 9.74023 31.2031 9.72461 30.9219C9.58398 29.5469 9.38086 28.1406 9.11523 26.7031C8.84961 25.2656 8.51367 23.8359 8.10742 22.4141C7.7168 20.9766 7.24023 19.5547 6.67773 18.1484C6.13086 16.7422 5.49805 15.3672 4.7793 14.0234C4.6543 13.7891 4.54492 13.5703 4.45117 13.3672C4.37305 13.1641 4.33398 12.9688 4.33398 12.7812C4.33398 12.5469 4.43555 12.2969 4.63867 12.0312C4.85742 11.75 5.12305 11.4922 5.43555 11.2578C5.76367 11.0234 6.11523 10.8359 6.49023 10.6953C6.88086 10.5391 7.25586 10.4609 7.61523 10.4609C8.20898 10.4609 8.73242 10.875 9.18555 11.7031C9.63867 12.5156 10.0605 13.8203 10.4512 15.6172C10.5293 15.9297 10.5918 16.1484 10.6387 16.2734C10.6855 16.3984 10.748 16.4609 10.8262 16.4609C10.998 16.4609 11.1074 16.1953 11.1543 15.6641C11.3418 14.1797 11.6621 12.9062 12.1152 11.8438C12.5684 10.7656 13.1309 9.88281 13.8027 9.19531C14.4902 8.49219 15.2715 7.97656 16.1465 7.64844C17.0371 7.32031 18.0137 7.15625 19.0762 7.15625C19.6855 7.15625 20.3027 7.21094 20.9277 7.32031C21.5527 7.42969 22.1152 7.59375 22.6152 7.8125C23.1152 8.03125 23.5215 8.29688 23.834 8.60938C24.1465 8.92188 24.3027 9.27344 24.3027 9.66406C24.3027 9.94531 24.2402 10.2812 24.1152 10.6719C24.0059 11.0469 23.8574 11.4141 23.6699 11.7734C23.4824 12.1172 23.2637 12.4141 23.0137 12.6641C22.7793 12.8984 22.5371 13.0156 22.2871 13.0156C22.0059 13.0156 21.7324 12.9375 21.4668 12.7812C21.2012 12.6094 20.9121 12.4297 20.5996 12.2422C20.3027 12.0547 19.9824 11.8828 19.6387 11.7266C19.3105 11.5547 18.9355 11.4688 18.5137 11.4688ZM42.7715 23.8672C43.2246 23.4766 43.6699 23.2812 44.1074 23.2812C44.3574 23.2812 44.584 23.3438 44.7871 23.4688C44.9902 23.5938 45.2168 23.7891 45.4668 24.0547C45.7012 24.4141 45.8652 24.7109 45.959 24.9453C46.0684 25.1641 46.123 25.3828 46.123 25.6016C46.123 26.0703 45.8887 26.5156 45.4199 26.9375C44.6699 27.5625 43.8574 28.125 42.9824 28.625C42.1074 29.1094 41.1934 29.5234 40.2402 29.8672C39.2871 30.2109 38.3027 30.4688 37.2871 30.6406C36.2715 30.8281 35.2637 30.9219 34.2637 30.9219C32.998 30.9219 31.8105 30.7578 30.7012 30.4297C29.5918 30.1172 28.5996 29.6641 27.7246 29.0703C26.8652 28.4766 26.1387 27.7656 25.5449 26.9375C24.9512 26.0938 24.5293 25.1484 24.2793 24.1016C24.1387 23.6641 24.0059 23.3828 23.8809 23.2578C23.7715 23.1172 23.584 23.0469 23.3184 23.0469C22.7402 23.0469 22.2949 22.9062 21.9824 22.625C21.6699 22.3438 21.5137 21.9375 21.5137 21.4062C21.5137 21.1875 21.5293 21.0469 21.5605 20.9844L21.6074 20.5156C21.6855 19.9531 21.834 19.5469 22.0527 19.2969C22.2871 19.0469 22.6465 18.9219 23.1309 18.9219H23.4824C24.1387 18.9219 24.5996 18.6172 24.8652 18.0078C25.3496 16.9297 25.9668 15.9453 26.7168 15.0547C27.4668 14.1641 28.3105 13.4062 29.248 12.7812C30.1855 12.1406 31.1855 11.6484 32.248 11.3047C33.3262 10.9453 34.4199 10.7656 35.5293 10.7656C36.6855 10.7656 37.7637 10.9375 38.7637 11.2812C39.7793 11.6094 40.6621 12.0703 41.4121 12.6641C42.1621 13.2578 42.748 13.9531 43.1699 14.75C43.6074 15.5469 43.8262 16.4062 43.8262 17.3281C43.8262 17.9688 43.7012 18.5547 43.4512 19.0859C43.2012 19.6172 42.8418 20.0859 42.373 20.4922C41.9043 20.8828 41.334 21.2031 40.6621 21.4531C40.0059 21.7031 39.2559 21.8672 38.4121 21.9453L30.2793 22.7656C29.9668 22.7656 29.709 22.8438 29.5059 23C29.3184 23.1562 29.2246 23.3672 29.2246 23.6328C29.2246 24.0391 29.373 24.4297 29.6699 24.8047C29.9824 25.1797 30.3887 25.5156 30.8887 25.8125C31.4043 26.0938 31.9902 26.3203 32.6465 26.4922C33.3184 26.6641 34.0059 26.75 34.709 26.75C35.3809 26.75 36.0684 26.6875 36.7715 26.5625C37.4902 26.4219 38.1934 26.2266 38.8809 25.9766C39.584 25.7266 40.2637 25.4297 40.9199 25.0859C41.5762 24.7266 42.1934 24.3203 42.7715 23.8672ZM37.5449 17.8203C37.7793 17.7734 37.9824 17.6641 38.1543 17.4922C38.3262 17.3047 38.4121 17.0781 38.4121 16.8125C38.4121 16.5781 38.3262 16.3594 38.1543 16.1562C37.9824 15.9531 37.748 15.7734 37.4512 15.6172C37.1543 15.4453 36.8105 15.3125 36.4199 15.2188C36.0293 15.125 35.6152 15.0781 35.1777 15.0781C34.5371 15.0781 33.8809 15.1719 33.209 15.3594C32.5371 15.5469 31.9277 15.7969 31.3809 16.1094C30.834 16.4062 30.3887 16.7422 30.0449 17.1172C29.7012 17.4766 29.5293 17.8359 29.5293 18.1953C29.5293 18.5547 29.748 18.7344 30.1855 18.7344C30.4512 18.7344 30.8809 18.7031 31.4746 18.6406C32.0684 18.5781 32.7246 18.5078 33.4434 18.4297C34.1621 18.3359 34.8887 18.2344 35.623 18.125C36.3574 18.0156 36.998 17.9141 37.5449 17.8203ZM62.3418 8.51562C63.2012 8.51562 64.0293 8.64844 64.8262 8.91406C65.623 9.17969 66.3262 9.54688 66.9355 10.0156C67.5449 10.4844 68.0293 11.0469 68.3887 11.7031C68.7637 12.3594 68.9512 13.0859 68.9512 13.8828C68.9512 14.2109 68.873 14.5312 68.7168 14.8438C68.5762 15.1406 68.3809 15.4062 68.1309 15.6406C67.8809 15.8594 67.5918 16.0391 67.2637 16.1797C66.9512 16.3047 66.623 16.3672 66.2793 16.3672C66.248 16.3672 66.2168 16.375 66.1855 16.3906C66.1699 16.3906 66.1465 16.3906 66.1152 16.3906C66.084 16.4062 66.0527 16.4141 66.0215 16.4141L66.1152 18.2891C66.1777 20.5234 66.4902 22.1562 67.0527 23.1875C67.6309 24.2188 68.3809 24.7344 69.3027 24.7344C69.6309 24.7344 69.9199 24.7031 70.1699 24.6406C70.4355 24.5781 70.6777 24.5078 70.8965 24.4297C71.1309 24.3359 71.3496 24.2578 71.5527 24.1953C71.7559 24.1328 71.959 24.1016 72.1621 24.1016C72.5215 24.1016 72.834 24.2578 73.0996 24.5703C73.3809 24.8828 73.5215 25.2578 73.5215 25.6953C73.5215 26.1328 73.3496 26.5703 73.0059 27.0078C72.6777 27.4453 72.2402 27.8438 71.6934 28.2031C71.1465 28.5469 70.5293 28.8281 69.8418 29.0469C69.1543 29.2656 68.459 29.375 67.7559 29.375C66.5371 29.375 65.4668 28.875 64.5449 27.875C63.623 26.8594 62.9668 25.375 62.5762 23.4219C62.4824 23.1094 62.3574 22.9531 62.2012 22.9531C62.0137 22.9531 61.8496 23.0469 61.709 23.2344C60.1621 25.1875 58.5137 26.6562 56.7637 27.6406C55.0137 28.6094 53.2871 29.0938 51.584 29.0938C50.7871 29.0938 50.0684 28.9766 49.4277 28.7422C48.7871 28.5078 48.2402 28.1797 47.7871 27.7578C47.3496 27.3203 47.0059 26.7969 46.7559 26.1875C46.5215 25.5625 46.4043 24.8672 46.4043 24.1016C46.4043 23.0234 46.6387 21.8906 47.1074 20.7031C47.5918 19.5156 48.2402 18.3438 49.0527 17.1875C49.8652 16.0312 50.8027 14.9297 51.8652 13.8828C52.9434 12.8359 54.0684 11.9141 55.2402 11.1172C56.4277 10.3203 57.6309 9.6875 58.8496 9.21875C60.0684 8.75 61.2324 8.51562 62.3418 8.51562ZM61.5684 16.625C61.8496 16.0938 62.1074 15.7109 62.3418 15.4766C62.5762 15.2266 62.9121 15.0625 63.3496 14.9844C63.6934 14.9375 63.8652 14.8281 63.8652 14.6562C63.8652 14.5312 63.8184 14.3984 63.7246 14.2578C63.4277 13.8516 63.1152 13.5 62.7871 13.2031C62.459 12.8906 62.0215 12.7344 61.4746 12.7344C60.8809 12.7344 60.2168 12.9062 59.4824 13.25C58.748 13.5938 57.998 14.0547 57.2324 14.6328C56.4824 15.1953 55.7402 15.8438 55.0059 16.5781C54.2871 17.2969 53.6465 18.0391 53.084 18.8047C52.5215 19.5703 52.0684 20.3281 51.7246 21.0781C51.3809 21.8281 51.209 22.5 51.209 23.0938C51.209 23.625 51.3496 24.0391 51.6309 24.3359C51.9277 24.6328 52.3262 24.7812 52.8262 24.7812C54.1074 24.7812 55.5059 24.1016 57.0215 22.7422C58.5371 21.3828 60.0527 19.3438 61.5684 16.625ZM82.5684 9.66406C83.3809 9.66406 84.1699 9.78125 84.9355 10.0156C85.7012 10.25 86.373 10.5703 86.9512 10.9766C87.5449 11.3672 88.0215 11.8203 88.3809 12.3359C88.7402 12.8359 88.9199 13.3516 88.9199 13.8828C88.9199 14.2266 88.8496 14.5625 88.709 14.8906C88.5684 15.2031 88.3809 15.4844 88.1465 15.7344C87.9121 15.9688 87.6465 16.1641 87.3496 16.3203C87.0527 16.4609 86.7402 16.5312 86.4121 16.5312C86.0527 16.5312 85.7246 16.3984 85.4277 16.1328C85.1309 15.8516 84.8105 15.5469 84.4668 15.2188C84.1387 14.875 83.7637 14.5703 83.3418 14.3047C82.9355 14.0234 82.4434 13.8828 81.8652 13.8828C81.3027 13.8828 80.7949 14.0156 80.3418 14.2812C79.8887 14.5469 79.5059 14.9219 79.1934 15.4062C78.8965 15.875 78.6621 16.4375 78.4902 17.0938C78.334 17.7344 78.2559 18.4375 78.2559 19.2031C78.2559 21.3906 78.6699 23.0625 79.498 24.2188C80.3262 25.3594 81.5137 25.9297 83.0605 25.9297C83.7949 25.9297 84.4199 25.8125 84.9355 25.5781C85.4668 25.3438 85.9277 25.0859 86.3184 24.8047C86.7246 24.5234 87.0918 24.2656 87.4199 24.0312C87.748 23.7969 88.084 23.6797 88.4277 23.6797C88.6152 23.6797 88.8027 23.7422 88.9902 23.8672C89.1777 23.9766 89.3418 24.125 89.4824 24.3125C89.6387 24.4844 89.7637 24.6797 89.8574 24.8984C89.9668 25.1172 90.0215 25.3359 90.0215 25.5547C90.0215 26.0703 89.7637 26.6016 89.248 27.1484C88.748 27.6953 88.0996 28.1953 87.3027 28.6484C86.5059 29.0859 85.6152 29.4453 84.6309 29.7266C83.6621 30.0078 82.7168 30.1484 81.7949 30.1484C80.5605 30.1484 79.4277 29.9062 78.3965 29.4219C77.3652 28.9531 76.4746 28.2969 75.7246 27.4531C74.9746 26.5938 74.3887 25.5703 73.9668 24.3828C73.5605 23.1953 73.3574 21.8828 73.3574 20.4453C73.3574 18.8828 73.584 17.4453 74.0371 16.1328C74.5059 14.8203 75.1465 13.6875 75.959 12.7344C76.7871 11.7656 77.7637 11.0156 78.8887 10.4844C80.0137 9.9375 81.2402 9.66406 82.5684 9.66406ZM89.9512 6.42969C89.9512 4.74219 91.0449 3.89844 93.2324 3.89844C93.6074 3.89844 93.9355 4 94.2168 4.20312C94.498 4.40625 94.6621 4.6875 94.709 5.04688C94.8496 6 94.9746 6.94531 95.084 7.88281C95.1934 8.82031 95.2949 9.875 95.3887 11.0469C95.498 12.2031 95.5996 13.5469 95.6934 15.0781C95.8027 16.5938 95.9199 18.4062 96.0449 20.5156C96.0449 20.7344 96.0762 20.8906 96.1387 20.9844C96.2168 21.0781 96.3027 21.125 96.3965 21.125C96.5371 21.125 96.6777 20.9844 96.8184 20.7031C97.3496 19.5312 97.9434 18.4844 98.5996 17.5625C99.2559 16.625 99.959 15.8359 100.709 15.1953C101.459 14.5391 102.248 14.0469 103.076 13.7188C103.92 13.375 104.779 13.2031 105.654 13.2031C106.811 13.2031 107.857 13.5312 108.795 14.1875C109.732 14.8438 110.529 15.7734 111.186 16.9766C111.842 18.1797 112.35 19.6406 112.709 21.3594C113.068 23.0625 113.248 24.9688 113.248 27.0781C113.248 27.6562 113.201 28.1328 113.107 28.5078C113.029 28.8672 112.889 29.1562 112.686 29.375C112.482 29.5938 112.201 29.7422 111.842 29.8203C111.482 29.9141 111.037 29.9609 110.506 29.9609C109.771 29.9609 109.24 29.8203 108.912 29.5391C108.6 29.2578 108.443 28.8203 108.443 28.2266C108.443 26.7578 108.342 25.375 108.139 24.0781C107.951 22.7656 107.686 21.6172 107.342 20.6328C106.998 19.6484 106.592 18.8672 106.123 18.2891C105.67 17.7109 105.178 17.4219 104.646 17.4219C103.443 17.4219 102.24 18.3984 101.037 20.3516C99.8496 22.3047 98.6074 25.25 97.3105 29.1875C97.1855 29.5469 97.0449 29.8438 96.8887 30.0781C96.7324 30.3125 96.5449 30.5 96.3262 30.6406C96.123 30.7812 95.873 30.875 95.5762 30.9219C95.2793 30.9844 94.9277 31.0156 94.5215 31.0156C93.6934 31.0156 93.0996 30.8594 92.7402 30.5469C92.3965 30.2344 92.209 29.7188 92.1777 29C92.084 26.2812 91.9121 23.6875 91.6621 21.2188C91.4277 18.7344 91.1777 16.4922 90.9121 14.4922C90.6621 12.4766 90.4355 10.7734 90.2324 9.38281C90.0449 7.97656 89.9512 6.99219 89.9512 6.42969ZM122.318 28.5781C121.865 28.5781 121.436 28.5078 121.029 28.3672C120.639 28.2266 120.295 28.0391 119.998 27.8047C119.701 27.5547 119.467 27.2656 119.295 26.9375C119.139 26.6094 119.061 26.2578 119.061 25.8828C119.061 25.2266 119.318 24.6953 119.834 24.2891C120.365 23.8828 121.061 23.6797 121.92 23.6797C122.326 23.6797 122.717 23.7578 123.092 23.9141C123.482 24.0547 123.818 24.25 124.1 24.5C124.396 24.75 124.631 25.0391 124.803 25.3672C124.975 25.6953 125.061 26.0391 125.061 26.3984C125.061 27.0859 124.811 27.625 124.311 28.0156C123.826 28.3906 123.162 28.5781 122.318 28.5781ZM130.217 2.30469C130.217 1.49219 130.451 0.914063 130.92 0.570312C131.389 0.226562 132.162 0.0546875 133.24 0.0546875C133.615 0.0546875 133.943 0.09375 134.225 0.171875C134.506 0.25 134.74 0.382812 134.928 0.570312C135.115 0.742187 135.264 0.984375 135.373 1.29688C135.498 1.59375 135.6 1.97656 135.678 2.44531C135.881 3.83594 136.084 5.29688 136.287 6.82812C136.506 8.34375 136.709 9.85938 136.896 11.375C137.1 12.875 137.287 14.3438 137.459 15.7812C137.631 17.2031 137.779 18.5312 137.904 19.7656C138.045 20.9844 138.146 22.0703 138.209 23.0234C138.287 23.9609 138.326 24.7031 138.326 25.25C138.326 25.8125 138.271 26.2891 138.162 26.6797C138.068 27.0703 137.896 27.3828 137.646 27.6172C137.412 27.8516 137.1 28.0234 136.709 28.1328C136.334 28.2266 135.865 28.2734 135.303 28.2734C134.756 28.2734 134.318 28.1328 133.99 27.8516C133.678 27.5703 133.521 27.1406 133.521 26.5625C133.521 25.9688 133.475 25.1797 133.381 24.1953C133.287 23.1953 133.162 22.0859 133.006 20.8672C132.85 19.6484 132.67 18.3516 132.467 16.9766C132.279 15.6016 132.076 14.2422 131.857 12.8984C131.654 11.5547 131.451 10.2656 131.248 9.03125C131.061 7.78125 130.889 6.67969 130.732 5.72656C130.576 4.75781 130.451 3.96875 130.357 3.35938C130.264 2.73437 130.217 2.38281 130.217 2.30469ZM145.592 5.09375C145.139 5.09375 144.709 5.03125 144.303 4.90625C143.912 4.76562 143.568 4.57812 143.271 4.34375C142.99 4.09375 142.764 3.80469 142.592 3.47656C142.42 3.14844 142.334 2.78906 142.334 2.39844C142.334 1.74219 142.592 1.21094 143.107 0.804688C143.639 0.398438 144.342 0.195312 145.217 0.195312C145.623 0.195312 146.014 0.273437 146.389 0.429688C146.764 0.570312 147.092 0.765625 147.373 1.01562C147.67 1.26563 147.904 1.5625 148.076 1.90625C148.248 2.23438 148.334 2.57813 148.334 2.9375C148.334 3.60938 148.084 4.14062 147.584 4.53125C147.1 4.90625 146.436 5.09375 145.592 5.09375ZM142.381 12.2422C142.381 11.6953 142.615 11.25 143.084 10.9062C143.568 10.5469 144.201 10.3672 144.982 10.3672C146.389 10.3672 147.139 10.8516 147.232 11.8203C147.295 12.4922 147.357 13.25 147.42 14.0938C147.498 14.9375 147.568 15.8359 147.631 16.7891C147.709 17.7266 147.771 18.7031 147.818 19.7188C147.881 20.7188 147.936 21.7109 147.982 22.6953C148.029 23.6641 148.068 24.6016 148.1 25.5078C148.131 26.4141 148.146 27.2422 148.146 27.9922C148.146 28.7734 147.865 29.3594 147.303 29.75C146.756 30.1406 145.951 30.3359 144.889 30.3359C144.404 30.3359 144.021 30.2188 143.74 29.9844C143.475 29.7656 143.342 29.4375 143.342 29C143.342 26.8438 143.287 24.8281 143.178 22.9531C143.084 21.0625 142.975 19.3828 142.85 17.9141C142.74 16.4453 142.631 15.2266 142.521 14.2578C142.428 13.2734 142.381 12.6016 142.381 12.2422ZM165.021 10.9062C165.068 10.4688 165.123 10.1094 165.186 9.82812C165.264 9.53125 165.373 9.29688 165.514 9.125C165.67 8.9375 165.865 8.80469 166.1 8.72656C166.334 8.64844 166.631 8.60938 166.99 8.60938C168.131 8.60938 168.967 8.78125 169.498 9.125C170.045 9.45312 170.318 9.98438 170.318 10.7188C170.318 10.8594 170.287 11.1719 170.225 11.6562C170.178 12.125 170.107 12.7109 170.014 13.4141C169.92 14.1016 169.811 14.8672 169.686 15.7109C169.576 16.5391 169.467 17.3828 169.357 18.2422C169.076 20.2422 168.756 22.4844 168.396 24.9688C168.178 26.4375 167.74 27.4922 167.084 28.1328C166.443 28.7734 165.49 29.0938 164.225 29.0938C163.271 29.0938 162.287 28.8516 161.271 28.3672C160.256 27.8828 159.271 27.2266 158.318 26.3984C157.365 25.5703 156.459 24.6094 155.6 23.5156C154.756 22.4062 154.014 21.2344 153.373 20C152.732 18.75 152.225 17.4766 151.85 16.1797C151.49 14.8828 151.311 13.6172 151.311 12.3828C151.311 10.9922 151.506 9.95312 151.896 9.26562C152.303 8.5625 152.998 8.21094 153.982 8.21094C154.67 8.21094 155.24 8.25781 155.693 8.35156C156.146 8.42969 156.506 8.57812 156.771 8.79688C157.053 9 157.248 9.27344 157.357 9.61719C157.482 9.96094 157.545 10.3906 157.545 10.9062C157.545 11.25 157.529 11.5938 157.498 11.9375C157.467 12.2812 157.451 12.625 157.451 12.9688C157.451 13.7656 157.529 14.6016 157.686 15.4766C157.857 16.3359 158.084 17.1797 158.365 18.0078C158.646 18.8359 158.975 19.625 159.35 20.375C159.725 21.1094 160.123 21.7578 160.545 22.3203C160.967 22.8828 161.389 23.3281 161.811 23.6562C162.248 23.9844 162.67 24.1484 163.076 24.1484C163.357 24.1484 163.568 24.0547 163.709 23.8672C163.865 23.6797 163.967 23.3594 164.014 22.9062L165.021 10.9062ZM193.615 23.8672C194.068 23.4766 194.514 23.2812 194.951 23.2812C195.201 23.2812 195.428 23.3438 195.631 23.4688C195.834 23.5938 196.061 23.7891 196.311 24.0547C196.545 24.4141 196.709 24.7109 196.803 24.9453C196.912 25.1641 196.967 25.3828 196.967 25.6016C196.967 26.0703 196.732 26.5156 196.264 26.9375C195.514 27.5625 194.701 28.125 193.826 28.625C192.951 29.1094 192.037 29.5234 191.084 29.8672C190.131 30.2109 189.146 30.4688 188.131 30.6406C187.115 30.8281 186.107 30.9219 185.107 30.9219C183.842 30.9219 182.654 30.7578 181.545 30.4297C180.436 30.1172 179.443 29.6641 178.568 29.0703C177.709 28.4766 176.982 27.7656 176.389 26.9375C175.795 26.0938 175.373 25.1484 175.123 24.1016C174.982 23.6641 174.85 23.3828 174.725 23.2578C174.615 23.1172 174.428 23.0469 174.162 23.0469C173.584 23.0469 173.139 22.9062 172.826 22.625C172.514 22.3438 172.357 21.9375 172.357 21.4062C172.357 21.1875 172.373 21.0469 172.404 20.9844L172.451 20.5156C172.529 19.9531 172.678 19.5469 172.896 19.2969C173.131 19.0469 173.49 18.9219 173.975 18.9219H174.326C174.982 18.9219 175.443 18.6172 175.709 18.0078C176.193 16.9297 176.811 15.9453 177.561 15.0547C178.311 14.1641 179.154 13.4062 180.092 12.7812C181.029 12.1406 182.029 11.6484 183.092 11.3047C184.17 10.9453 185.264 10.7656 186.373 10.7656C187.529 10.7656 188.607 10.9375 189.607 11.2812C190.623 11.6094 191.506 12.0703 192.256 12.6641C193.006 13.2578 193.592 13.9531 194.014 14.75C194.451 15.5469 194.67 16.4062 194.67 17.3281C194.67 17.9688 194.545 18.5547 194.295 19.0859C194.045 19.6172 193.686 20.0859 193.217 20.4922C192.748 20.8828 192.178 21.2031 191.506 21.4531C190.85 21.7031 190.1 21.8672 189.256 21.9453L181.123 22.7656C180.811 22.7656 180.553 22.8438 180.35 23C180.162 23.1562 180.068 23.3672 180.068 23.6328C180.068 24.0391 180.217 24.4297 180.514 24.8047C180.826 25.1797 181.232 25.5156 181.732 25.8125C182.248 26.0938 182.834 26.3203 183.49 26.4922C184.162 26.6641 184.85 26.75 185.553 26.75C186.225 26.75 186.912 26.6875 187.615 26.5625C188.334 26.4219 189.037 26.2266 189.725 25.9766C190.428 25.7266 191.107 25.4297 191.764 25.0859C192.42 24.7266 193.037 24.3203 193.615 23.8672ZM188.389 17.8203C188.623 17.7734 188.826 17.6641 188.998 17.4922C189.17 17.3047 189.256 17.0781 189.256 16.8125C189.256 16.5781 189.17 16.3594 188.998 16.1562C188.826 15.9531 188.592 15.7734 188.295 15.6172C187.998 15.4453 187.654 15.3125 187.264 15.2188C186.873 15.125 186.459 15.0781 186.021 15.0781C185.381 15.0781 184.725 15.1719 184.053 15.3594C183.381 15.5469 182.771 15.7969 182.225 16.1094C181.678 16.4062 181.232 16.7422 180.889 17.1172C180.545 17.4766 180.373 17.8359 180.373 18.1953C180.373 18.5547 180.592 18.7344 181.029 18.7344C181.295 18.7344 181.725 18.7031 182.318 18.6406C182.912 18.5781 183.568 18.5078 184.287 18.4297C185.006 18.3359 185.732 18.2344 186.467 18.125C187.201 18.0156 187.842 17.9141 188.389 17.8203Z" fill="#FA935B"/>
</g>
<defs>
<filter id="filter0_d" x="0.333984" y="0.0546875" width="200.633" height="40.1562" filterUnits="userSpaceOnUse" color-interpolation-filters="sRGB">
<feFlood flood-opacity="0" result="BackgroundImageFix"/>
<feColorMatrix in="SourceAlpha" type="matrix" values="0 0 0 0 0 0 0 0 0 0 0 0 0 0 0 0 0 0 127 0"/>
<feOffset dy="4"/>
<feGaussianBlur stdDeviation="2"/>
<feColorMatrix type="matrix" values="0 0 0 0 0 0 0 0 0 0 0 0 0 0 0 0 0 0 0.25 0"/>
<feBlend mode="normal" in2="BackgroundImageFix" result="effect1_dropShadow"/>
<feBlend mode="normal" in="SourceGraphic" in2="effect1_dropShadow" result="shape"/>
</filter>
</defs>
</svg>
